# xmcd
# 
# Track frame offsets:
#     150
#     14855
#     32385
#     52377
#     68980
#     86075
#     103840
#     119320
#     133945
#     148817
#     168422
#     185625
#     205797
#     223800
#     238657
#     263405
#     287992
#     309880
#     327962
# 
# Disc length: 4657
# 
# Revision: 11
# Processed by: cddbd v1.5.2PL0 Copyright (c) Steve Scherf et al.
# Submitted via: BonkEnc v1.0.6
# 
DISCID=2d122f13
DTITLE=Ratt - Ratt and Roll 8191
DYEAR=1991
DGENRE=Heavy Metal
TTITLE0=Tell The World
TTITLE1=You Think You're Tough
TTITLE2=Round And Round
TTITLE3=Wanted Man
TTITLE4=Back For More
TTITLE5=Lack Of Communication
TTITLE6=Lay It Down
TTITLE7=You're In Love
TTITLE8=Slip Of The Lip
TTITLE9=Dance
TTITLE10=Body Talk
TTITLE11=Way Cool Jr.
TTITLE12=I Want A Woman
TTITLE13=Lovin' You's A Dirty Job
TTITLE14=Shame Shame Shame
TTITLE15=Givin' Yourself Away
TTITLE16=One Step Away
TTITLE17=Heads I Win, Tails You Lose
TTITLE18=Nobody Rides For Free - Born On The Bayou
EXTD=YEAR: 1991
EXTT0=
EXTT1=
EXTT2=
EXTT3=
EXTT4=
EXTT5=
EXTT6=
EXTT7=
EXTT8=
EXTT9=
EXTT10=
EXTT11=
EXTT12=
EXTT13=
EXTT14=
EXTT15=
EXTT16=
EXTT17=
EXTT18=
PLAYORDER=
